<svg xmlns="http://www.w3.org/2000/svg" width="105" height="130"><path fill="#0079B2" d="M77.815 0c8.449 7.155 16.898 14.301 25.348 21.466 0 35.795.01 71.6 0 107.395l-3.93-.174c.077-35.1.01-70.209.029-105.31-1.111-.83-2.23-1.66-3.342-2.481-.02 35.969 0 71.938 0 107.906h-3.833c0-37.146-.029-74.283.009-111.431-1.119-.897-2.249-1.786-3.359-2.684-.01 38.025 0 76.051-.01 114.076-.946.028-2.839.087-3.785.106-.106-39.06-.01-78.128-.049-117.187-1.119-.937-2.24-1.863-3.35-2.78-.01 39.956 0 79.923 0 119.889-1.295.039-2.578.078-3.863.126.3-42.969.049-85.947.135-128.917zM28.155 52.201c5.687 3.91 11.365 7.83 17.052 11.751-.01 19.39 0 38.778-.01 58.168-.656-.01-1.96-.02-2.607-.029-.01-18.993-.019-37.996 0-56.999-.753-.512-1.506-1.015-2.25-1.517-.039 19.496 0 39.001-.019 58.506h-2.568c-.029-20.151.019-40.304-.029-60.456-.753-.464-1.497-.927-2.24-1.391 0 20.616.01 41.231 0 61.847h-2.568c-.029-21.185.019-42.36-.02-63.546-.753-.492-1.506-.966-2.24-1.448 0 21.668 0 43.326-.009 64.994-.618-.009-1.864-.019-2.491-.019-.021-23.291-.021-46.571-.001-69.861z"/><path fill="#03587A" d="M49.166 128.802c8.401.01 16.811-.01 25.211.02-.028-19.225-.135-38.45-.202-57.676 0-4.567-.038-9.144-.038-13.711.01-5.389-.02-10.776-.039-16.165.01-2.887 0-5.783-.02-8.681 0-3.234-.01-6.469-.029-9.704 0-7.59-.038-15.179-.105-22.759C68.45 4.838 62.936 9.54 57.432 14.252c-2.328 2.019-4.684 3.998-6.962 6.064-4.683-.154-9.366-.01-14.05.039-5.378-.106-10.757-.059-16.135-.029-5.484-.02-10.979-.049-16.463.038l-3.814-.058c-.01 2.655-.01 5.302 0 7.947.01 33.516 0 67.032.01 100.548 15.063.203 30.117-.038 45.18.01v-6.691c-.656-.01-1.96-.02-2.607-.029-.57 0-1.709 0-2.269-.01h-9.675c-.618-.009-1.864-.019-2.491-.019l-2.356-.039c-.029-15.739-.145-31.479-.183-47.208 0-7.503-.116-14.996-.145-22.489-5.282 4.229-10.921 8.015-16 12.505-.272-10.525-.021-21.069-.108-31.604 0-1.468.01-2.936.02-4.403 2.414 0 4.837-.01 7.261-.058 5.716.116 11.433.048 17.149.028 5.157.01 10.313.213 15.459-.173l.048.019c-.184 5.012-.097 10.023-.106 15.035.019 4.77-.02 9.54 0 14.319l-.029 70.808z"/></svg>